{"title":"The Town EXTENDED.BRRip.720p.H264.Feel-Free","uid":6011410,"size":2239898169,"categoryP":"video","categoryS":"hd___movies","magnet":"?xt=urn:btih:ad14e12e698d0d9f60ff5868066b0e81bd325f31&amp;dn=The+Town+EXTENDED.BRRip.720p.H264.Feel-Free&amp;tr=udp%3A%2F%2Ftracker.openbittorrent.com%3A80&amp;tr=udp%3A%2F%2Fopen.demonii.com%3A1337&amp;tr=udp%3A%2F%2Ftracker.coppersurfer.tk%3A6969&amp;tr=udp%3A%2F%2Fexodus.desync.com%3A6969","seeders":1,"leechers":0,"uploader":"neon","files":-1,"time":1291467759,"description":"Language: English\nGenre:Crime | Drama | Thriller\n &lt;a href=&quot; http://www.imdb.com/title/tt0840361/&quot; rel=&quot;nofollow&quot; target=&quot;_NEW&quot;&gt; http://www.imdb.com/title/tt0840361/&lt;/a&gt;\nSource:EXTENDED.720p.Bluray.x264-CBGB\n &lt;a href=&quot;\nhttp://www.rapidhdd.com/images/346521vlcsnap-2010-12-04-13h41m49s202.png&quot; rel=&quot;nofollow&quot; target=&quot;_NEW&quot;&gt;\nhttp://www.rapidhdd.com/images/346521vlcsnap-2010-12-04-13h41m49s202.png&lt;/a&gt; &lt;a href=&quot;\nhttp://www.rapidhdd.com/images/886701vlcsnap-2010-12-04-13h41m17s135.png&quot; rel=&quot;nofollow&quot; target=&quot;_NEW&quot;&gt;\nhttp://www.rapidhdd.com/images/886701vlcsnap-2010-12-04-13h41m17s135.png&lt;/a&gt; &lt;a href=&quot;\nhttp://www.rapidhdd.com/images/583039vlcsnap-2010-12-04-13h38m49s217.png&quot; rel=&quot;nofollow&quot; target=&quot;_NEW&quot;&gt;\nhttp://www.rapidhdd.com/images/583039vlcsnap-2010-12-04-13h38m49s217.png&lt;/a&gt;\n\n\nGeneral\nComplete name :The.Town.EXTENDED.BRRip.720p.H264.Feel-Free\nFormat : MPEG-4\nFormat profile : Base Media\nCodec ID : mp42\nFile size : 2.08 GiB\nDuration : 2h 30mn\nOverall bit rate : 1 980 Kbps\nVideo #1\nCodec ID : avc1\nCodec ID/Info : Advanced Video Coding\nDuration : 2h 30mn\nBit rate mode : Variable\nBit rate : 1 498 Kbps\nWidth : 1 280 pixels\nHeight : 536 pixels\nDisplay aspect ratio : 2.35:1\nFrame rate mode : Constant\nFrame rate : 23.976 fps\nResolution : 24 bits\nColorimetry : 4:2:0\nScan type : Progressive\nBits/(Pixel*Frame) : 0.091\nStream size : 1.58 GiB (76%)\nAudio #2\nID : 2\nFormat : AAC\nFormat/Info : Advanced Audio Codec\nFormat version : Version 4\nFormat profile : LC\nFormat settings, SBR : No\nCodec ID : 40\nDuration : 2h 30mn\nBit rate mode : Constant\nBit rate : 477 Kbps\nNominal bit rate : 480 Kbps\nChannel(s) : 6 channels\nChannel positions : Front: L C R, Rear: L R, LFE\nSampling rate : 48.0 KHz\nResolution : 16 bits\nStream size : 514 MiB (24%)\n\nPlot:\nAs he plans his next job, a longtime thief tries to balance his feelings for a bank manager connected to one of his earlier heists, as well as the FBI agent looking to bring him and his crew down\n\n","torrent":{"xt":"urn:btih:ad14e12e698d0d9f60ff5868066b0e81bd325f31","amp;dn":"The+Town+EXTENDED.BRRip.720p.H264.Feel-Free","amp;tr":["udp%3A%2F%2Ftracker.openbittorrent.com%3A80","udp%3A%2F%2Fopen.demonii.com%3A1337","udp%3A%2F%2Ftracker.coppersurfer.tk%3A6969","udp%3A%2F%2Fexodus.desync.com%3A6969"],"infoHash":"ad14e12e698d0d9f60ff5868066b0e81bd325f31","infoHashBuffer":{"type":"Buffer","data":[173,20,225,46,105,141,13,159,96,255,88,104,6,107,14,129,189,50,95,49]},"announce":[],"urlList":[]}}